<?xml version="1.0" encoding="UTF-8"?>
<svg id="OUTLINE" xmlns="http://www.w3.org/2000/svg" version="1.1" viewBox="0 0 64 64">
  <!-- Generator: Adobe Illustrator 29.2.1, SVG Export Plug-In . SVG Version: 2.1.0 Build 116)  -->
  <defs>
    <style>
      .st0 {
        fill: #57bf93;
      }
    </style>
  </defs>
  <path class="st0" d="M26,24c0-1.6-1.4-3-3-3s-3,1.4-3,3,1.4,3,3,3,3-1.4,3-3ZM23,25c-.5,0-1-.5-1-1s.5-1,1-1,1,.5,1,1-.5,1-1,1Z"/>
  <path class="st0" d="M31,17c-2.2,0-4,1.8-4,4s1.8,4,4,4,4-1.8,4-4-1.8-4-4-4ZM31,23c-1.1,0-2-.9-2-2s.9-2,2-2,2,.9,2,2-.9,2-2,2Z"/>
  <path class="st0" d="M29,27c-2.2,0-4,1.8-4,4s1.8,4,4,4,4-1.8,4-4-1.8-4-4-4ZM29,33c-1.1,0-2-.9-2-2s.9-2,2-2,2,.9,2,2-.9,2-2,2Z"/>
  <path class="st0" d="M49.6,14.6c-4.7-4.9-10.9-7.6-17.6-7.6s-13,2.7-17.6,7.6c-1.4,1.5-1.8,3.8-.9,5.6l4,8.1c.3.7.5,1.5.5,2.2v14.4c0,1.5,1.1,2.8,2.5,3.1.9.1,1.8,0,2.4-.7.7-.6,1.1-1.4,1.1-2.3v-3.5l5.3,10.8c.5,1,1.5,1.7,2.7,1.7s2.2-.6,2.7-1.7l4.3-8.8v10.5c0,1.7,1.3,3,3,3s3-1.3,3-3v-21c0-1.1.2-2.1.7-3.1l4.8-9.7c.9-1.9.6-4.1-.9-5.6ZM43.9,29c-.6,1.2-.9,2.6-.9,4v21c0,.5-.5,1-1,1s-1-.5-1-1v-10.5c0-1-.6-1.7-1.5-2-.2,0-.3,0-.5,0-.8,0-1.4.4-1.8,1.1l-4.3,8.8c-.3.7-1.4.7-1.7,0l-5.3-10.8c-.4-.8-1.3-1.3-2.2-1.1-.9.2-1.5,1-1.5,2v3.5c0,.3-.1.6-.4.8-.2.2-.5.3-.8.2-.5,0-.8-.6-.8-1.1v-14.4c0-1.1-.2-2.1-.7-3.1l-1.9-3.8c3-5.4,8.5-8.6,14.6-8.6s11.7,3.3,14.6,8.6c0,0-2.7,5.4-2.7,5.5ZM48.7,19.4l-1,2.1c-3.4-5.3-9.3-8.5-15.7-8.5s-12.2,3.2-15.7,8.5l-1-2.1c-.5-1.1-.3-2.5.5-3.4,4.3-4.5,10-7,16.2-7s11.9,2.5,16.2,7c.8.9,1.1,2.3.5,3.4Z"/>
  <path class="st0" d="M21,50c-1.6,0-3,1.3-3,3s1.4,3,3,3,3-1.3,3-3-1.4-3-3-3ZM21,54c-.5,0-1-.5-1-1s.5-1,1-1,1,.5,1,1-.5,1-1,1Z"/>
</svg>