<?xml version="1.0" encoding="UTF-8"?>
<svg id="Capa_1" xmlns="http://www.w3.org/2000/svg" version="1.1" viewBox="0 0 512 512">
  <!-- Generator: Adobe Illustrator 29.2.1, SVG Export Plug-In . SVG Version: 2.1.0 Build 116)  -->
  <defs>
    <style>
      .st0 {
        fill: #57bf93;
      }
    </style>
  </defs>
  <path class="st0" d="M55.8,437h15v-255.5h121.5v-15H40.8v-68.2h-15v83.2h30v255.5Z"/>
  <path class="st0" d="M25.8,512h166.5v-15H40.8v-30h318v30h-151.5v15h166.5v-60H25.8v60Z"/>
  <path class="st0" d="M40.8,15h318v151.5h-151.5v15h121.5v255.5h15v-255.5h30V0H25.8v83.2h15V15Z"/>
  <path class="st0" d="M192.2,30H55.8v121.5h288V30h-136.5v15h121.5v91.5H70.8V45h121.5v-15Z"/>
  <path class="st0" d="M486.2,80.5v-15c-24.8,0-45,20.2-45,45v41.2l-30,28.1v95.1h75v-45h-15v30h-45v-73.6l25.5-23.9h19.5v52.5h15v-67.5h-30v-37c0-16.5,13.5-30,30-30h0Z"/>
  <path class="st0" d="M441.2,459.5c0,8.3-6.7,15-15,15s-15-6.7-15-15v-120.2c0-16.5-13.5-30-30-30h-7.5v-22.7h-15v60.5h15v-22.7h7.5c8.3,0,15,6.7,15,15v120.2c0,16.5,13.5,30,30,30s30-13.5,30-30v-169.5h-15v169.5Z"/>
  <path class="st0" d="M441.2,190.6h15v15h-15v-15Z"/>
  <path class="st0" d="M147.2,335.5c0,29.1,23.6,52.7,52.5,52.7s52.5-23.7,52.5-52.7-16.3-44-32.1-66.3c-5.1-7.2-9.9-14-14-20.4l-6.3-10-6.3,10c-4.1,6.5-8.9,13.3-14,20.4-15.8,22.2-32.1,45.2-32.1,66.3h0ZM199.8,266.3c2.6,3.8,5.3,7.6,8.1,11.6,13.8,19.4,29.4,41.3,29.4,57.6s-16.8,37.7-37.5,37.7-37.5-16.9-37.5-37.7,15.6-38.2,29.4-57.6c2.8-4,5.5-7.8,8.1-11.6h0Z"/>
  <path class="st0" d="M207.2,328h15v15h-15v-15Z"/>
  <path class="st0" d="M115.8,422h15v15h-15v-15Z"/>
  <path class="st0" d="M298.8,226.5h15v45h-15v-45Z"/>
  <path class="st0" d="M85.8,422h15v15h-15v-15Z"/>
  <path class="st0" d="M298.8,196.5h15v15h-15v-15Z"/>
  <path class="st0" d="M177.2,83.3h15v15h-15v-15Z"/>
  <path class="st0" d="M207.2,83.3h15v15h-15v-15Z"/>
  <path class="st0" d="M298.8,60h15v15h-15v-15Z"/>
  <path class="st0" d="M85.8,106.5h15v15h-15v-15Z"/>
</svg>