<?xml version="1.0" encoding="UTF-8"?>
<svg id="Capa_1" xmlns="http://www.w3.org/2000/svg" version="1.1" viewBox="0 0 512 512">
  <!-- Generator: Adobe Illustrator 29.2.1, SVG Export Plug-In . SVG Version: 2.1.0 Build 116)  -->
  <defs>
    <style>
      .st0 {
        fill: #57bf93;
      }
    </style>
  </defs>
  <path class="st0" d="M496.2,463.9h-33.9v-17.4c0-6-3.4-11.2-8.3-13.9v-159.6c14.9-8.8,24.9-25,24.9-43.5.1-4,0-8.3-1.5-12.1l-19.8-52.7c-3.5-9.3-12.6-15.6-22.5-15.6h-98.8c3.7-4.5,6.4-9.8,7.9-15.8l9.2-36.7c5.6-2.4,9.6-8,9.6-14.5v-16.6c0-8.7-7.1-15.8-15.8-15.8h-67V15.8C280.1,7.1,273,0,264.3,0h-16.6C239,0,231.9,7.1,231.9,15.8v33.9h-21.9c-4.1,0-7.5,3.4-7.5,7.5s3.4,7.5,7.5,7.5h21.9v18.1h-67.1c-.4,0-.8-.4-.8-.8v-16.6c0-.4.4-.8.8-.8h10.1c4.1,0,7.5-3.4,7.5-7.5s-3.4-7.5-7.5-7.5h-10.1c-8.7,0-15.8,7.1-15.8,15.8v16.6c0,6.5,4,12.1,9.6,14.5l9.2,36.7c1.5,5.9,4.2,11.3,7.9,15.8h-98.8c-10,0-19,6.3-22.5,15.6l-19.8,52.7c-1.5,3.8-1.6,8.1-1.5,12.1,0,18.5,10,34.7,24.8,43.5v159.6c-4.9,2.7-8.3,7.9-8.3,13.9v17.4H15.8C7.1,463.9,0,470.9,0,479.6v16.6c0,8.7,7.1,15.8,15.8,15.8h40.5c4.1,0,7.5-3.4,7.5-7.5s-3.4-7.5-7.5-7.5H15.8c-.4,0-.8-.4-.8-.8v-16.6c0-.4.4-.8.8-.8h480.4c.4,0,.8.4.8.8v16.6c0,.4-.4.8-.8.8H91.3c-4.1,0-7.5,3.4-7.5,7.5s3.4,7.5,7.5,7.5h405c8.7,0,15.8-7.1,15.8-15.8v-16.6c0-8.7-7.1-15.8-15.8-15.8h0ZM329.8,445.7h116.8c.4,0,.8.4.8.8v17.4h-117.5v-18.1ZM439,331.3h-42.2c-8.7,0-15.8,7.1-15.8,15.8v83.6h-18.1v-108.5c0-5,4.1-9.1,9.1-9.1h67.1v18.1ZM439,430.7h-43v-83.6c0-.4.4-.8.8-.8h42.2v84.4h0ZM48.2,230.4h71.1c-.5,19.2-16.2,34.7-35.6,34.7s-35.1-15.5-35.6-34.7h0ZM209.8,164.1l-3.8,51.3h-69.8l11.5-51.3h62.1ZM364.3,164.1l11.5,51.3h-69.8l-3.8-51.3h62.1ZM287.1,164.1l3.8,51.3h-70l3.8-51.3h62.3ZM205.4,230.4c-.5,19.2-16.2,34.7-35.6,34.7s-35.1-15.5-35.6-34.7h71.1ZM291.6,230.4c-.5,19.2-16.2,34.7-35.6,34.7s-35.1-15.5-35.6-34.7h71.1ZM377.7,230.4c-.5,19.2-16.2,34.7-35.6,34.7s-35.1-15.5-35.6-34.7h71.1ZM463.8,230.4c-.5,19.2-16.2,34.7-35.6,34.7s-35.1-15.5-35.6-34.7h71.1ZM443.5,170l17,45.4h-69.3l-11.5-51.3h55.4c3.8,0,7.2,2.4,8.5,5.9h0ZM347.1,64.7c.4,0,.8.4.8.8v16.6c0,.4-.4.8-.8.8h-67.1v-18.1h67.1ZM246.9,15.8c0-.4.4-.8.8-.8h16.6c.4,0,.8.4.8.8v67.1h-18.1V15.8ZM182.5,129.7l-8-31.9h163l-8,31.9c-2.9,11.4-13.1,19.4-24.9,19.4h-97.4c-11.8,0-22-8-24.9-19.4h0ZM68.5,170c1.3-3.5,4.7-5.9,8.5-5.9h55.4l-11.5,51.3H51.5l17-45.4ZM83.7,280.1c18.2,0,34.2-9.7,43.1-24.1,8.9,14.5,24.9,24.1,43.1,24.1s34.2-9.7,43.1-24.1c8.9,14.5,24.9,24.1,43.1,24.1s34.2-9.7,43.1-24.1c8.9,14.5,24.9,24.1,43.1,24.1s34.2-9.7,43.1-24.1c8.9,14.5,24.9,24.1,43.1,24.1s7.3-.4,10.7-1.2v19.3h-67.1c-13.3,0-24.1,10.8-24.1,24.1v108.5h-18.1v-116.8c0-8.7-7.1-15.8-15.8-15.8h-116c-8.7,0-15.8,7.1-15.8,15.8v116.8h-18.1v-108.5c0-13.3-10.8-24.1-24.1-24.1h-67.1v-19.3c3.5.7,7,1.2,10.7,1.2ZM73,346.3h42.2c.4,0,.8.4.8.8v83.6h-43v-84.4ZM115.2,331.3h-42.2v-18.1h67.1c5,0,9.1,4.1,9.1,9.1v108.5h-18.1v-83.6c0-8.7-7.1-15.8-15.8-15.8h0ZM64.7,446.5c0-.4.4-.8.8-.8h116.7v18.1h-117.5v-17.4ZM197.2,314c0-.4.4-.8.8-.8h50.5v150.7h-51.3v-149.9ZM263.5,463.9v-150.7h50.5c.4,0,.8.4.8.8v149.9h-51.3Z"/>
</svg>