<?xml version="1.0" encoding="UTF-8"?>
<svg id="Expanded" xmlns="http://www.w3.org/2000/svg" version="1.1" viewBox="0 0 64 64">
  <!-- Generator: Adobe Illustrator 29.2.1, SVG Export Plug-In . SVG Version: 2.1.0 Build 116)  -->
  <defs>
    <style>
      .st0 {
        fill: #57bf93;
      }
    </style>
  </defs>
  <path class="st0" d="M29.1,14v-.2c0-.9.5-2.3,1.7-2.6.2,0,.3,0,.5-.1v-.7c0-.4.3-.8.8-.8s.8.3.8.8v.7c.8.1,1.4.4,1.9.8.3.3.3.8,0,1.1-.3.3-.8.4-1.1,0-.5-.5-1.7-.7-2.5-.4-.3,0-.6.7-.6,1.2v.2c0,.2,0,.5.4.6h2.1s0,0,.1,0c1.1.2,1.8,1.1,1.8,2.2v.2c0,.9-.5,2.3-1.7,2.6-.2,0-.3,0-.5.1v.7c0,.4-.3.8-.8.8s-.8-.3-.8-.8v-.7c-.8-.1-1.4-.4-1.9-.8-.3-.3-.3-.8,0-1.1s.8-.3,1.1,0c.5.5,1.7.7,2.5.4.3,0,.6-.7.6-1.2v-.2c0-.2,0-.6-.5-.7h-2c-1.1,0-1.9-.9-1.9-2.1h0ZM35.5,31.3h-7c-.4,0-.8.3-.8.8s.3.8.8.8h7c.4,0,.8-.3.8-.8s-.3-.8-.8-.8ZM35.5,27.3h-7c-.4,0-.8.3-.8.8s.3.8.8.8h7c.4,0,.8-.3.8-.8s-.3-.8-.8-.8ZM60.8,55.6v.7c0,2.1-1.7,3.8-3.8,3.8H7c-2.1,0-3.8-1.7-3.8-3.8v-.7c0-2.1,1.7-3.8,3.8-3.8h2c0-.7,0-1.3.3-1.9l.5-1c.3-.7.8-1.2,1.5-1.6v-24c-.3-.4-.6-.8-.8-1.3-.4-1.2-.1-2.5.6-3.5,0,0,0,0,0-.1,0,0,0,0,.1-.1,0-.2.3-.4.5-.4,0,0,0,0,0,0L29.8,4.7c1.3-1,3.1-1,4.4,0l17.9,13.1s0,0,0,0c.2,0,.4.2.5.4,0,0,0,0,0,.1,0,0,0,0,0,.1.8,1,1,2.2.6,3.5-.2.5-.4.9-.8,1.3v24c.6.4,1.1.9,1.5,1.6l.5,1c.3.6.4,1.3.3,1.9h2c2.1,0,3.8,1.7,3.8,3.8h0ZM11.9,21.5c.1.3.3.7.6.9,0,0,0,0,0,0,.4.3.9.6,1.5.6h35.9c.7,0,1.2-.2,1.5-.6,0,0,0,0,0,0,.3-.3.5-.6.6-.9.2-.5.2-1.2-.2-1.8h-12.9c-.4,0-.8-.3-.8-.8s.3-.8.8-.8h11.2l-16.8-12.3c-.8-.6-1.9-.6-2.6,0l-16.9,12.3h11.2c.4,0,.8.3.8.8s-.3.8-.8.8h-12.9c-.4.6-.4,1.3-.2,1.8h0ZM50.3,46.8h.6c.1,0,.2,0,.3,0v-22.5c-.4.1-.8.2-1.3.2h-3.5v16.6c1.2.1,2.2.8,2.8,1.9l.8,1.4c.4.8.5,1.6.4,2.5h0ZM14.1,44.3l.8-1.4c.6-1,1.6-1.7,2.8-1.9v-16.6h-3.6c-.5,0-.9,0-1.3-.2v22.5c.1,0,.2,0,.4,0h.6c-.2-.8,0-1.7.4-2.5h0ZM15.2,46.8h33.5c.2-.6.2-1.2-.1-1.7l-.8-1.4c-.4-.7-1.1-1.1-1.9-1.1h-28c-.8,0-1.5.4-1.9,1.1l-.8,1.4c-.3.5-.3,1.2-.1,1.7h0ZM23.6,41.1v-16.5h-4.5v16.5h4.5ZM38.9,32.3h0v-7.7h-13.7v11.3h13.7v-3.5h0ZM32.8,37.3v3.8h6.1v-3.8h-6.1ZM25.1,37.3v3.8h6.1v-3.8h-6.1ZM40.4,36.6h0v4.5h4.5v-16.5h-4.5v7.7h0v4.3h0ZM10.5,51.9h43c0-.4,0-.9-.2-1.3l-.5-1c-.4-.8-1.1-1.2-2-1.2H13.1c-.8,0-1.6.5-1.9,1.2l-.5,1c-.2.4-.2.9-.2,1.3ZM59.2,55.6c0-1.2-1-2.2-2.2-2.2H7c-1.2,0-2.2,1-2.2,2.2v.7c0,1.2,1,2.2,2.2,2.2h50c1.2,0,2.2-1,2.2-2.2v-.7Z"/>
</svg>