<?xml version="1.0" encoding="UTF-8"?>
<svg id="Layer_1" xmlns="http://www.w3.org/2000/svg" version="1.1" viewBox="0 0 48 48">
  <!-- Generator: Adobe Illustrator 29.2.1, SVG Export Plug-In . SVG Version: 2.1.0 Build 116)  -->
  <defs>
    <style>
      .st0 {
        fill: #57bf93;
      }
    </style>
  </defs>
  <g id="OUTLINE">
    <g>
      <path class="st0" d="M8,22h1.8c.7,1.8,1.7,3,3.2,3h4c1.7,0,3.1-1.9,3.7-5h6.6c.6,3.1,2,5,3.7,5h4c1.5,0,2.5-1.2,3.2-3h1.8c1.7,0,3-2.2,3-5s-1.3-5-3-5h-1.8c-.7-1.8-1.7-3-3.2-3h-4c-1.7,0-3.1,1.9-3.7,5h-6.6c-.6-3.1-2-5-3.7-5h-4c-1.5,0-2.5,1.2-3.2,3h-1.8c-1.7,0-3,2.1-3,5s1.3,5,3,5ZM38.7,14h1.3c.2,0,1,1,1,3s-.8,3-1,3h-1.3c.2-1,.3-2,.3-3s0-2-.3-3ZM33.7,11h1.3c.7,0,2,2.3,2,6s-1.3,6-2,6h-1.3c.8-1.5,1.3-3.8,1.3-6s-.4-4.5-1.3-6ZM29.3,14.3c.4-2.1,1.2-3.3,1.7-3.3.7,0,2,2.3,2,6s-1.3,6-2,6-1.3-1.2-1.7-3.3c1-.5,1.7-1.5,1.7-2.7s-.7-2.2-1.7-2.7ZM20,16h8c.5,0,1,.5,1,1s-.5,1-1,1h-8c-.5,0-1-.5-1-1s.5-1,1-1ZM13,11h1.3c-.5,1-1,2.3-1.2,3.9,0,.5.3,1,.9,1.1.5,0,1-.3,1.1-.9.3-2.7,1.3-4.1,1.9-4.1s1.3,1.2,1.7,3.3c-1,.5-1.7,1.5-1.7,2.7s.7,2.2,1.7,2.7c-.4,2.1-1.2,3.3-1.7,3.3s-1.5-1.5-1.9-4.1c0-.6-.6-1-1.1-.9-.5,0-.9.6-.9,1.1.2,1.6.6,2.9,1.2,3.9h-1.3c-.7,0-2-2.3-2-6s1.3-6,2-6h0ZM8,14h1.3c-.2,1-.3,2-.3,3s0,2,.3,3h-1.3c-.2,0-1-1-1-3s.8-3,1-3Z"/>
      <path class="st0" d="M40,30h-1.8c-.7-1.8-1.7-3-3.2-3h-4c-1.7,0-3.1,1.9-3.7,5h-6.6c-.6-3.1-2-5-3.7-5h-4c-1.5,0-2.5,1.2-3.2,3h-1.8c-1.7,0-3,2.1-3,5s1.3,5,3,5h1.8c.7,1.8,1.7,3,3.2,3h4c1.7,0,3.1-1.9,3.7-5h6.6c.6,3.1,2,5,3.7,5h4c1.5,0,2.5-1.2,3.2-3h1.8c1.7,0,3-2.2,3-5s-1.3-5-3-5ZM9.3,38h-1.3c-.2,0-1-1-1-3s.8-3,1-3h1.3c-.2,1-.3,2-.3,3s0,2,.3,3ZM14.3,41h-1.3c-.7,0-2-2.3-2-6s1.3-6,2-6h1.3c-.8,1.5-1.3,3.8-1.3,6s.4,4.5,1.3,6ZM18.7,37.7c-.4,2.1-1.2,3.3-1.7,3.3-.7,0-2-2.3-2-6s1.3-6,2-6,1.3,1.2,1.7,3.3c-1,.5-1.7,1.5-1.7,2.7s.7,2.2,1.7,2.7ZM28,36h-8c-.5,0-1-.5-1-1s.5-1,1-1h8c.5,0,1,.5,1,1s-.5,1-1,1ZM35,41h-1.3c.5-1,1-2.3,1.2-3.9,0-.5-.3-1-.9-1.1-.5,0-1,.3-1.1.9-.3,2.6-1.3,4.1-1.9,4.1s-1.3-1.2-1.7-3.3c1-.5,1.7-1.5,1.7-2.7s-.7-2.2-1.7-2.7c.4-2.1,1.2-3.3,1.7-3.3s1.5,1.5,1.9,4.1c0,.5.5.9,1,.9.6,0,1.1-.5,1-1.1-.2-1.6-.6-2.9-1.2-3.9h1.3c.7,0,2,2.3,2,6s-1.3,6-2,6h0ZM40,38h-1.3c.2-1,.3-2,.3-3s0-2-.3-3h1.3c.2,0,1,1,1,3s-.8,3-1,3Z"/>
      <path class="st0" d="M24,11c.6,0,1-.4,1-1v-4c0-.6-.4-1-1-1s-1,.4-1,1v4c0,.6.4,1,1,1Z"/>
      <path class="st0" d="M28,9c.3,0,.5,0,.7-.3l2-2c.4-.4.4-1,0-1.4s-1-.4-1.4,0l-2,2c-.6.6-.2,1.7.7,1.7Z"/>
      <path class="st0" d="M19.3,8.7c.4.4,1,.4,1.4,0,.4-.4.4-1,0-1.4l-2-2c-.4-.4-1-.4-1.4,0s-.4,1,0,1.4l2,2Z"/>
    </g>
  </g>
</svg>