<?xml version="1.0" encoding="UTF-8"?>
<svg id="Layer_1" xmlns="http://www.w3.org/2000/svg" version="1.1" viewBox="0 0 64 64">
  <!-- Generator: Adobe Illustrator 29.2.1, SVG Export Plug-In . SVG Version: 2.1.0 Build 116)  -->
  <defs>
    <style>
      .st0 {
        fill: #57bf93;
      }
    </style>
  </defs>
  <g id="Outline">
    <g>
      <path class="st0" d="M56,17h-2v-4c0-.5-.3-.9-.8-1l-21-5s0,0,0,0c0,0-.1,0-.2,0s-.1,0-.2,0c0,0,0,0,0,0l-21,5c-.5.1-.8.5-.8,1v4h-2c-.5,0-1,.5-1,1v38c0,.5.5,1,1,1h48c.5,0,1-.5,1-1V18c0-.5-.5-1-1-1ZM9,25h3v4h-3v-4ZM9,31h3v5h-3v-5ZM9,38h3v5h-3v-5ZM9,45h3v4h-3v-4ZM17,24v31h-8v-4h4c.5,0,1-.5,1-1v-26c0-.5-.5-1-1-1h-4v-4h12v4h-3c-.5,0-1,.5-1,1ZM31,55h-6v-10h6v10ZM39,55h-6v-10h6v10ZM45,55h-4v-11c0-.5-.5-1-1-1h-16c-.5,0-1,.5-1,1v11h-4v-30h9c.5,0,1-.5,1-1s-.5-1-1-1h-5v-5c0-.5-.5-1-1-1h-10v-3.2l20-4.8,20,4.8v3.2h-10c-.5,0-1,.5-1,1v5h-5c-.5,0-1,.5-1,1s.5,1,1,1h9v30ZM55,49h-3v-4h3v4ZM55,43h-3v-5h3v5ZM55,36h-3v-5h3v5ZM55,29h-3v-4h3v4ZM55,23h-4c-.5,0-1,.5-1,1v26c0,.5.5,1,1,1h4v4h-8v-31c0-.5-.5-1-1-1h-3v-4h12v4Z"/>
      <path class="st0" d="M32,27c-3.9,0-7,3.1-7,7s3.1,7,7,7,7-3.1,7-7-3.1-7-7-7ZM32,39c-2.8,0-5-2.2-5-5s2.2-5,5-5,5,2.2,5,5-2.2,5-5,5Z"/>
      <path class="st0" d="M34.4,34.1l-1.4-.7v-1.4c0-.6-.4-1-1-1s-1,.4-1,1v2c0,.4.2.7.6.9l2,1c.1,0,.3.1.4.1.4,0,.7-.2.9-.6.2-.5,0-1.1-.4-1.3Z"/>
      <path class="st0" d="M38,18v-4c0-.6-.4-1-1-1h-10c-.6,0-1,.4-1,1v4c0,.6.4,1,1,1h10c.6,0,1-.4,1-1ZM36,17h-8v-2h8v2Z"/>
      <circle class="st0" cx="32" cy="24" r="1"/>
    </g>
  </g>
</svg>