<?xml version="1.0" encoding="UTF-8"?>
<svg id="Capa_1" xmlns="http://www.w3.org/2000/svg" version="1.1" xmlns:xlink="http://www.w3.org/1999/xlink" viewBox="0 0 512 512">
  <!-- Generator: Adobe Illustrator 29.2.1, SVG Export Plug-In . SVG Version: 2.1.0 Build 116)  -->
  <defs>
    <style>
      .st0 {
        fill: #57bf93;
      }
    </style>
  </defs>
  <path class="st0" d="M264.6,2.9C262.8,1.1,260.2,0,257.6,0s-5.2,1.1-7.1,2.9c-1.9,1.9-2.9,4.4-2.9,7.1s1.1,5.2,2.9,7.1c1.9,1.9,4.4,2.9,7.1,2.9s5.2-1.1,7.1-2.9c1.9-1.9,2.9-4.4,2.9-7.1s-1.1-5.2-2.9-7.1Z"/>
  <path class="st0" d="M492,96.6v-28.2c0-15.2-12.3-27.5-27.5-27.5h-17.4C442.9,17.7,422.5,0,398,0h-97.6C294.8,0,290.3,4.5,290.3,10s4.5,10,10,10h97.6c16.5,0,30,13.5,30,30v30h-96v-30c0-5.5-4.5-10-10-10h-132c-5.5,0-10,4.5-10,10v30h-95.9v-30c0-16.5,13.5-30,30-30h100.4c5.5,0,10-4.5,10-10S220,0,214.5,0h-100.4C89.6,0,69.2,17.7,65,41h-17.5c-15.2,0-27.5,12.3-27.5,27.5v28.2C8.4,100.8,0,111.9,0,124.9v37.4c0,16.5,13.5,30,30,30s30-13.5,30-30v-37.4c0-13-8.4-24.2-20-28.3v-28.2c0-4.1,3.4-7.5,7.5-7.5h16.6v332c0,20.1,11.9,37.4,29,45.4v35.6c0,21,17,38,38,38s38-17,38-38v-31h173.9v31c0,21,17,38,38,38s38-17,38-38v-35.7c17-8,28.9-25.3,28.9-45.3V61h16.5c4.1,0,7.5,3.4,7.5,7.5v28.2c-11.6,4.1-20,15.2-20,28.3v37.4c0,16.5,13.5,30,30,30s30-13.5,30-30v-37.4c0-13-8.4-24.2-20-28.3ZM40,162.3c0,5.5-4.5,10-10,10s-10-4.5-10-10v-37.4c0-5.5,4.5-10,10-10s10,4.5,10,10v37.4ZM326.6,100l-31.2,31.2c-3.9,3.9-3.9,10.2,0,14.1,2,2,4.5,2.9,7.1,2.9s5.1-1,7.1-2.9l45.3-45.3h58.8l-147.8,147.8V100h60.6ZM200,60h112v20h-112v-20ZM203.3,234.6c-3.9-3.9-10.2-3.9-14.1,0l-62.2,62.2h-6.4l-30.9-30.9L246,109.5v187.3h-90.7l48-48c3.9-3.9,3.9-10.2,0-14.1ZM84.1,100h143.1L84.1,243.1V100ZM149.2,474c0,9.9-8.1,18-18,18s-18-8.1-18-18v-31h36v31ZM399.1,474c0,9.9-8.1,18-18,18s-18-8.1-18-18v-31h36v31ZM428,393c0,16.5-13.5,30-30,30H114.1c-16.5,0-30-13.5-30-30v-104.4l25.2,25.2c1.9,1.9,4.4,2.9,7.1,2.9h279.1c2.7,0,5.2-1.1,7.1-2.9l25.3-25.3v104.5ZM428,260.2l-36.5,36.5h-125.4v-20.7l162-162v146.1ZM492,162.3c0,5.5-4.5,10-10,10s-10-4.5-10-10v-37.4c0-5.5,4.5-10,10-10s10,4.5,10,10v37.4Z"/>
  <path class="st0" d="M140,339.9c-16.5,0-30,13.5-30,30s13.5,30,30,30,30-13.5,30-30-13.5-30-30-30ZM140,379.9c-5.5,0-10-4.5-10-10s4.5-10,10-10,10,4.5,10,10-4.5,10-10,10Z"/>
  <path class="st0" d="M372,339.9c-16.5,0-30,13.5-30,30s13.5,30,30,30,30-13.5,30-30-13.5-30-30-30ZM372,379.9c-5.5,0-10-4.5-10-10s4.5-10,10-10,10,4.5,10,10-4.5,10-10,10Z"/>
  <path class="st0" d="M308.1,339.9h-104c-5.5,0-10,4.5-10,10v40c0,5.5,4.5,10,10,10h104c5.5,0,10-4.5,10-10v-40c0-5.5-4.5-10-10-10ZM298.1,379.9h-84v-20h84v20Z"/>
</svg>