<?xml version="1.0" encoding="UTF-8"?>
<svg id="Capa_1" xmlns="http://www.w3.org/2000/svg" version="1.1" viewBox="0 0 512 512">
  <!-- Generator: Adobe Illustrator 29.2.1, SVG Export Plug-In . SVG Version: 2.1.0 Build 116)  -->
  <defs>
    <style>
      .st0 {
        fill: #57bf93;
      }
    </style>
  </defs>
  <path class="st0" d="M496.2,463.9h-42.2v-19.9c2.8,1.1,5.9,1.8,9.1,1.8,13.3,0,24.1-10.8,24.1-24.1v-82.8c0-13.3-10.8-24.1-24.1-24.1h-9.1v-17.4c0-8.7-7.1-15.8-15.8-15.8h-33.9v-18.1h33.9c8.7,0,15.8-7.1,15.8-15.8v-33.1c0-8.7-7.1-15.8-15.8-15.8h-82.8c-8.7,0-15.8,7.1-15.8,15.8v33.1c0,8.7,7.1,15.8,15.8,15.8h.8v18.1h-.8c-8.7,0-15.8,7.1-15.8,15.8v166.4h-18.1v-9.1c0-13.3-10.8-24.1-24.1-24.1h-9.1v-50.5c0-6-3.4-11.2-8.3-13.9v-185.7h199.6c8.7,0,15.8-7.1,15.8-15.8v-16.6c0-8.7-7.1-15.8-15.8-15.8h-42.2v-18.1h17.4c13.3,0,24.1-10.8,24.1-24.1v-49.7c0-13.3-10.8-24.1-24.1-24.1h-31.6l-3.8-7.7C416.7,3.4,411.2,0,405.1,0s-11.6,3.4-14.3,8.9l-3.8,7.7h-31.6c-13.3,0-24.1,10.8-24.1,24.1v49.7c0,13.3,10.8,24.1,24.1,24.1h17.4v18.1h-175.5v-9.1c0-13.3-10.8-24.1-24.1-24.1h-99.4c-13.3,0-24.1,10.8-24.1,24.1v9.1h-17.3c-8.7,0-15.8,7.1-15.8,15.8v16.6c0,8.7,7.1,15.8,15.8,15.8h199.6v33c0,4.1,3.4,7.5,7.5,7.5s7.5-3.4,7.5-7.5v-33h18.1v183.8h-18.1v-115.8c0-4.1-3.4-7.5-7.5-7.5s-7.5,3.4-7.5,7.5v117.7c-4.9,2.7-8.3,7.9-8.3,13.9v50.5h-9.1c-13.3,0-24.1,10.8-24.1,24.1v9.1h-18.1v-166.4c0-8.7-7.1-15.8-15.8-15.8h-.8v-18.1h.8c8.7,0,15.8-7.1,15.8-15.8v-33.1c0-8.7-7.1-15.8-15.8-15.8h-82.8c-8.7,0-15.8,7.1-15.8,15.8v33.1c0,8.7,7.1,15.8,15.8,15.8h33.9v18.1h-33.9c-8.7,0-15.8,7.1-15.8,15.8v17.4h-9.1c-13.3,0-24.1,10.8-24.1,24.1v82.8c0,13.3,10.8,24.1,24.1,24.1s6.3-.6,9.1-1.8v19.9H15.8C7.1,463.9,0,470.9,0,479.6v16.6c0,8.7,7.1,15.8,15.8,15.8h40.6c4.1,0,7.5-3.4,7.5-7.5s-3.4-7.5-7.5-7.5H15.8c-.4,0-.8-.4-.8-.8v-16.6c0-.4.4-.8.8-.8h480.4c.4,0,.8.4.8.8v16.6c0,.4-.4.8-.8.8H91.3c-4.1,0-7.5,3.4-7.5,7.5s3.4,7.5,7.5,7.5h405c8.7,0,15.8-7.1,15.8-15.8v-16.6c0-8.7-7.1-15.8-15.8-15.8h0ZM454.8,31.6c5,0,9.1,4.1,9.1,9.1v49.7c0,5-4.1,9.1-9.1,9.1h-17.9c6.1-7.4,9.5-16.7,9.5-26.4s-1.9-14.2-5.4-20.5l-10.4-21h24.2ZM405.1,15c.6,0,.8.4.9.5l21.7,43.9c0,.1.1.3.2.4,2.3,4,3.5,8.5,3.5,13.2,0,7.4-3,14.2-8.4,19.3-5.4,5-12.4,7.5-19.8,7-12.9-.9-23.4-11.3-24.4-24.2-.4-5.4.8-10.7,3.4-15.3,0-.1.2-.3.2-.4l21.7-43.9c0-.2.3-.5.9-.5ZM346.3,90.3v-49.7c0-5,4.1-9.1,9.1-9.1h24.2l-10.4,21c-4.1,7.2-5.9,15.4-5.3,23.8.7,8.7,4.1,16.7,9.4,23.1h-17.9c-5,0-9.1-4.1-9.1-9.1h0ZM422.5,114.4v17.6h-34.7v-17.6h34.7ZM64.7,123.5c0-5,4.1-9.1,9.1-9.1h99.4c5,0,9.1,4.1,9.1,9.1v9.1h-117.5v-9.1ZM32.4,165.7c-.4,0-.8-.4-.8-.8v-16.6c0-.4.4-.8.8-.8h447.3c.4,0,.8.4.8.8v16.6c0,.4-.4.8-.8.8H32.4ZM354.6,329.8h84.4v34.7h-84.4v-34.7ZM463.1,430.7c-5,0-9.1-4.1-9.1-9.1v-33.9h18.1v33.9c0,5-4.1,9.1-9.1,9.1ZM472.1,338.8v33.9h-18.1v-43h9.1c5,0,9.1,4.1,9.1,9.1ZM354.6,247.7v-33.1c0-.4.4-.8.8-.8h82.8c.4,0,.8.4.8.8v33.1c0,.4-.4.8-.8.8h-82.8c-.4,0-.8-.4-.8-.8ZM371.2,263.5h18.1v18.1h-18.1v-18.1ZM354.6,297.4c0-.4.4-.8.8-.8h82.8c.4,0,.8.4.8.8v17.4h-84.4v-17.4ZM238.6,380.3c0-.4.4-.8.8-.8h33.1c.4,0,.8.4.8.8v50.5h-34.7v-50.5h0ZM73,329.8h84.4v34.7h-84.4v-34.7ZM73,247.7v-33.1c0-.4.4-.8.8-.8h82.8c.4,0,.8.4.8.8v33.1c0,.4-.4.8-.8.8h-82.8c-.4,0-.8-.4-.8-.8ZM122.7,263.5h18.1v18.1h-18.1v-18.1ZM73,297.4c0-.4.4-.8.8-.8h82.8c.4,0,.8.4.8.8v17.4h-84.4v-17.4ZM39.8,338.8c0-5,4.1-9.1,9.1-9.1h9.1v43h-18.1v-33.9ZM48.9,430.7c-5,0-9.1-4.1-9.1-9.1v-33.9h18.1v33.9c0,5-4.1,9.1-9.1,9.1ZM73,379.5h84.4v34.7h-33.9c-8.7,0-15.8,7.1-15.8,15.8v33.9h-34.7v-84.4h0ZM122.7,463.9v-33.9c0-.4.4-.8.8-.8h33.9v34.7h-34.7ZM205.5,463.9v-9.1c0-5,4.1-9.1,9.1-9.1h82.8c5,0,9.1,4.1,9.1,9.1v9.1h-101ZM354.6,463.9v-34.7h33.9c.4,0,.8.4.8.8v33.9h-34.7ZM404.3,463.9v-33.9c0-8.7-7.1-15.8-15.8-15.8h-33.9v-34.7h84.4v84.4h-34.7Z"/>
</svg>