<?xml version="1.0" encoding="UTF-8"?>
<svg id="Capa_1" xmlns="http://www.w3.org/2000/svg" version="1.1" viewBox="0 0 512 512">
  <!-- Generator: Adobe Illustrator 29.2.1, SVG Export Plug-In . SVG Version: 2.1.0 Build 116)  -->
  <defs>
    <style>
      .st0 {
        fill: #57bf93;
      }
    </style>
  </defs>
  <path class="st0" d="M496.2,463.9h-9.1v-17.3c0-6-3.4-11.2-8.3-13.9v-169.1h.8c8.7,0,15.8-7.1,15.8-15.8v-33.1c0-8.7-7.1-15.8-15.8-15.8h-.8v-33.9c0-8.7-7.1-15.8-15.8-15.8h-116.5l71.4-42.8c13.1-7.9,22.4-20.4,26.1-35.2,3.7-14.8,1.4-30.2-6.4-43.3-7.9-13.1-20.4-22.4-35.2-26.1-14.8-3.7-30.2-1.4-43.3,6.4l-82.8,49.7c-13.1,7.9-22.4,20.4-26.1,35.2-3.7,14.8-1.4,30.2,6.4,43.3,2.9,4.8,6.4,9.1,10.5,12.8h-71.6c21.1-14.9,34.8-39.4,34.8-67C230.4,36.8,193.6,0,148.3,0s-29.7,4.1-42.4,11.8c-3.5,2.1-4.7,6.8-2.5,10.3s6.8,4.7,10.3,2.5c10.4-6.3,22.4-9.6,34.7-9.6,37,0,67,30.1,67,67s-30.1,67-67,67-67-30.1-67-67,3.4-24.4,9.8-34.9c2.2-3.5,1-8.1-2.5-10.3-3.5-2.2-8.1-1-10.3,2.5-7.9,12.8-12,27.6-12,42.8,0,27.7,13.8,52.2,34.8,67h-52.2c-8.7,0-15.8,7.1-15.8,15.8v33.9h-.8c-8.7,0-15.8,7.1-15.8,15.8v33.1c0,8.7,7.1,15.8,15.8,15.8h.8v169.1c-4.9,2.7-8.3,7.9-8.3,13.9v17.3h-9.1C7.1,463.9,0,470.9,0,479.7v16.6c0,8.7,7.1,15.8,15.8,15.8h40.5c4.1,0,7.5-3.4,7.5-7.5s-3.4-7.5-7.5-7.5H15.8c-.4,0-.8-.4-.8-.8v-16.6c0-.4.4-.8.8-.8h480.4c.4,0,.8.4.8.8v16.6c0,.4-.4.8-.8.8H91.3c-4.1,0-7.5,3.4-7.5,7.5s3.4,7.5,7.5,7.5h404.9c8.7,0,15.8-7.1,15.8-15.8v-16.6c0-8.7-7.1-15.8-15.8-15.8h0ZM321.5,445.7h149.9c.4,0,.8.4.8.8v17.3h-150.7v-18.1ZM463.9,164.9v33.9h-71.1v-34.7h70.4c.4,0,.8.4.8.8ZM306.6,198.8v-34.7h71.1v34.7h-71.1ZM220.4,198.8v-34.7h71.1v34.7h-71.1ZM366.8,21c6.6-4,14.1-6,21.6-6s6.9.4,10.3,1.3c10.9,2.7,20.2,9.6,26,19.2,5.8,9.7,7.5,21,4.8,31.9-2.7,10.9-9.6,20.1-19.2,25.9l-35.7,21.4-43.4-72.4,35.7-21.4ZM264.8,96.7c2.7-10.9,9.6-20.1,19.2-25.9l34.2-20.5,43.4,72.4-34.2,20.5c-6.5,3.9-13.9,6-21.5,6h-.4c-14.9,0-28.4-7.7-36-20.5-5.8-9.7-7.5-21-4.8-31.9h0ZM205.4,164.1v34.7h-71.1v-34.7h71.1ZM48.1,164.9c0-.4.4-.8.8-.8h70.4v34.7H48.1v-33.9ZM31.6,247.7v-33.1c0-.4.4-.8.8-.8h447.3c.4,0,.8.4.8.8v33.1c0,.4-.4.8-.8.8H32.4c-.4,0-.8-.4-.8-.8h0ZM463.9,263.5v167.2h-142.4v-116.7c0-8.7-7.1-15.8-15.8-15.8h-99.4c-8.7,0-15.8,7.1-15.8,15.8v116.7H48.1v-167.2h415.7ZM39.9,446.5c0-.4.4-.8.8-.8h149.9v18.1H39.9v-17.3ZM205.5,463.9v-149.9c0-.4.4-.8.8-.8h99.4c.4,0,.8.4.8.8v149.9h-101Z"/>
  <path class="st0" d="M276.7,397.6h-41.4c-6.4,0-11.6,5.2-11.6,11.6v24.8c0,6.4,5.2,11.6,11.6,11.6h41.4c6.4,0,11.6-5.2,11.6-11.6v-24.8c0-6.4-5.2-11.6-11.6-11.6ZM273.3,430.7h-34.7v-18.1h34.7v18.1Z"/>
  <path class="st0" d="M276.7,331.3h-41.4c-6.4,0-11.6,5.2-11.6,11.6v24.8c0,6.4,5.2,11.6,11.6,11.6h41.4c6.4,0,11.6-5.2,11.6-11.6v-24.8c0-6.4-5.2-11.6-11.6-11.6ZM273.3,364.5h-34.7v-18.1h34.7v18.1Z"/>
  <path class="st0" d="M82.1,412.6h74.5c8.7,0,15.8-7.1,15.8-15.8v-82.8c0-8.7-7.1-15.8-15.8-15.8h-74.5c-8.7,0-15.8,7.1-15.8,15.8v82.8c0,8.7,7.1,15.8,15.8,15.8ZM81.3,314c0-.4.4-.8.8-.8h74.5c.4,0,.8.4.8.8v82.8c0,.4-.4.8-.8.8h-74.5c-.4,0-.8-.4-.8-.8v-82.8Z"/>
  <path class="st0" d="M355.4,412.6h74.5c8.7,0,15.8-7.1,15.8-15.8v-82.8c0-8.7-7.1-15.8-15.8-15.8h-74.5c-8.7,0-15.8,7.1-15.8,15.8v82.8c0,8.7,7.1,15.8,15.8,15.8h0ZM354.6,314c0-.4.4-.8.8-.8h74.5c.4,0,.8.4.8.8v82.8c0,.4-.4.8-.8.8h-74.5c-.4,0-.8-.4-.8-.8v-82.8Z"/>
  <path class="st0" d="M115.2,106.1h9.1v9.1c0,8.7,7.1,15.8,15.8,15.8h16.6c8.7,0,15.8-7.1,15.8-15.8v-9.1h9.1c8.7,0,15.8-7.1,15.8-15.8v-16.6c0-8.7-7.1-15.8-15.8-15.8h-9.1v-9.1c0-8.7-7.1-15.8-15.8-15.8h-16.6c-8.7,0-15.8,7.1-15.8,15.8v9.1h-9.1c-8.7,0-15.8,7.1-15.8,15.8v16.6c0,8.7,7.1,15.8,15.8,15.8ZM114.4,73.8c0-.4.4-.8.8-.8h12.4c6.4,0,11.6-5.2,11.6-11.6v-12.4c0-.4.4-.8.8-.8h16.6c.4,0,.8.4.8.8v12.4c0,6.4,5.2,11.6,11.6,11.6h12.4c.4,0,.8.4.8.8v16.6c0,.4-.4.8-.8.8h-12.4c-6.4,0-11.6,5.2-11.6,11.6v12.4c0,.4-.4.8-.8.8h-16.6c-.4,0-.8-.4-.8-.8v-12.4c0-6.4-5.2-11.6-11.6-11.6h-12.4c-.4,0-.8-.4-.8-.8v-16.6Z"/>
</svg>