<?xml version="1.0" encoding="UTF-8"?>
<svg id="Layer_2" data-name="Layer 2" xmlns="http://www.w3.org/2000/svg" viewBox="0 0 62 54.75">
  <defs>
    <style>
      .cls-1 {
        fill: #57bf93;
      }
    </style>
  </defs>
  <g id="clinic">
    <g>
      <path class="cls-1" d="M61,19.83h-15.16v-10.65h.02c1.16,0,2.1-.94,2.1-2.1V2.09c0-1.16-.94-2.09-2.1-2.09h-29.73c-1.16,0-2.1.94-2.1,2.09v5c0,1.16.94,2.1,2.1,2.1h.02v10.65H1c-.55,0-1,.45-1,1v32.92c0,.55.45,1,1,1h60c.55,0,1-.45,1-1V20.83c0-.55-.45-1-1-1ZM16.04,7.09V2.09s.05-.09.1-.09h29.73c.05,0,.1.04.1.09v5c0,.05-.05.1-.1.1h-29.73s-.1-.05-.1-.1ZM2,21.83h14.15v30.92H2v-30.92ZM18.15,9.19h25.69v43.57h-3.07v-15.02c0-.55-.45-1-1-1h-17.55c-.55,0-1,.45-1,1v15.02h-3.07V9.19ZM32,38.74h6.77v14.02h-6.77v-14.02ZM30,52.75h-6.77v-14.02h6.77v14.02ZM60,52.75h-14.16v-30.92h14.16v30.92Z"/>
      <path class="cls-1" d="M26.46,24.82h1.77v1.77c0,.55.45,1,1,1h3.55c.55,0,1-.45,1-1v-1.77h1.77c.55,0,1-.45,1-1v-3.55c0-.55-.45-1-1-1h-1.77v-1.77c0-.55-.45-1-1-1h-3.55c-.55,0-1,.45-1,1v1.77h-1.77c-.55,0-1,.45-1,1v3.55c0,.55.45,1,1,1ZM27.46,21.26h1.77c.55,0,1-.45,1-1v-1.77h1.55v1.77c0,.55.45,1,1,1h1.77v1.55h-1.77c-.55,0-1,.45-1,1v1.77h-1.55v-1.77c0-.55-.45-1-1-1h-1.77v-1.55Z"/>
      <path class="cls-1" d="M31,32.1c5.55,0,10.06-4.51,10.06-10.06s-4.51-10.06-10.06-10.06-10.06,4.51-10.06,10.06,4.51,10.06,10.06,10.06ZM31,13.98c4.45,0,8.06,3.62,8.06,8.06s-3.62,8.06-8.06,8.06-8.06-3.62-8.06-8.06,3.62-8.06,8.06-8.06Z"/>
      <path class="cls-1" d="M34.59,44.02c-.55,0-1,.45-1,1v1.76c0,.55.45,1,1,1s1-.45,1-1v-1.76c0-.55-.45-1-1-1Z"/>
      <path class="cls-1" d="M27.4,47.78c.55,0,1-.45,1-1v-1.76c0-.55-.45-1-1-1s-1,.45-1,1v1.76c0,.55.45,1,1,1Z"/>
      <path class="cls-1" d="M12.94,28.67h-7.73c-.55,0-1,.45-1,1v12.97c0,.55.45,1,1,1h7.73c.55,0,1-.45,1-1v-12.97c0-.55-.45-1-1-1ZM11.94,41.64h-5.73v-10.97h5.73v10.97Z"/>
      <path class="cls-1" d="M49.06,43.64h7.73c.55,0,1-.45,1-1v-12.97c0-.55-.45-1-1-1h-7.73c-.55,0-1,.45-1,1v12.97c0,.55.45,1,1,1ZM50.06,30.67h5.73v10.97h-5.73v-10.97Z"/>
    </g>
  </g>
</svg>