<?xml version="1.0" encoding="UTF-8"?>
<svg id="Layer_2" xmlns="http://www.w3.org/2000/svg" version="1.1" viewBox="0 0 159.4 159.6">
  <!-- Generator: Adobe Illustrator 29.2.1, SVG Export Plug-In . SVG Version: 2.1.0 Build 116)  -->
  <defs>
    <style>
      .st0 {
        fill: #57bf93;
      }
    </style>
  </defs>
  <g id="Layer_1-2">
    <g>
      <path class="st0" d="M77.1,18.1v5.7c0,1.5,1.2,2.7,2.7,2.7s2.7-1.2,2.7-2.7v-5.1c.4,0,.8-.1,1.2-.3,1.5-.5,2.9-1.3,4-2.4,1-1,1-2.7,0-3.8-1.1-1-2.7-1-3.8,0-.5.5-1.1.9-1.8,1.1-2.2.7-4.7-.6-5.4-2.8-.7-2.3.6-4.7,2.8-5.4,1.4-.4,2.2-1.9,1.8-3.3-.4-1.4-1.9-2.2-3.3-1.8-5.1,1.6-7.9,6.9-6.3,12,.9,2.8,3,4.9,5.5,6h0Z"/>
      <path class="st0" d="M156.8,154.3h-13.3v-74.4c0-1.5-1.2-2.7-2.7-2.7h-23.5v-9.8c0-.2,0-.3,0-.5-.2-20.5-17-37.1-37.5-37.1s-31.9,11.4-36.3,27.8c-.4,1.4.5,2.9,1.9,3.3,1.4.4,2.9-.5,3.3-1.9,3.8-14,16.6-23.8,31.1-23.8s30.8,13,32.1,29.6H44.7c-1.5,0-2.7,1.2-2.7,2.7v9.8h-23.5c-1.5,0-2.7,1.2-2.7,2.7v74.4H2.7c-1.5,0-2.7,1.2-2.7,2.7s1.2,2.7,2.7,2.7h154.1c1.5,0,2.7-1.2,2.7-2.7s-1.2-2.7-2.7-2.7h0ZM138.2,89.7h-7.8v-7.2h7.8v7.2ZM125.1,82.6v7.2h-7.8v-7.2h7.8ZM112,70.1v7.2h-11v-7.2h11ZM95.8,77.3h-13.4v-7.2h13.4v7.2ZM77.1,70.1v7.2h-13.4v-7.2h13.4ZM58.4,70.1v7.2h-11v-7.2h11ZM42.1,89.7h-8.1v-7.2h8.1v7.2ZM28.6,82.6v7.2h-7.4v-7.2h7.4ZM21.3,95h20.8v59.3h-4.1v-37.2c0-2.9-2.4-5.3-5.3-5.3h-2.7c-2.9,0-5.3,2.4-5.3,5.3v37.2h-3.4v-59.3h0ZM30,154.3v-37.2h2.7v37.2h-2.7ZM59.8,154.3v-59.2h17.3v59.2h-17.3ZM82.4,154.3v-59.2h17.3v59.2s-17.3,0-17.3,0ZM105,154.3v-59.2c0-2.9-2.4-5.3-5.3-5.3h-39.9c-2.9,0-5.3,2.4-5.3,5.3v59.2h-7.1v-71.7h64.6v71.7h-7.1,0ZM126.4,154.3v-37.2h2.7v37.2h-2.7ZM134.4,154.3v-37.2c0-2.9-2.4-5.3-5.3-5.3h-2.7c-2.9,0-5.3,2.4-5.3,5.3v37.2h-3.8v-59.3h20.8v59.3h-3.8Z"/>
    </g>
  </g>
</svg>